<svg viewBox="-1 -1 2 2" xmlns="http://www.w3.org/2000/svg">
<title>NBP</title>
<desc>Narodowy Bank Polski</desc>
<style>
@media (prefers-color-scheme: dark) {
  path {
    fill: #000;
    stroke: none;
  }
}
@media (prefers-color-scheme: light) {
  path {
    fill: #000;
    stroke: none;
  }
}
</style>
<defs>
<symbol id="nbp" viewBox="0 0 78 78">
<path d="M38.6522 0C17.3056 0 0 16.7907 0 37.5021C0 58.2136 17.3056 75 38.6522 75C59.9989 75 77.3045 58.2136 77.3045 37.5021C77.3045 16.7907 59.9989 0 38.6522 0ZM73.1004 45.2027L68.3631 43.967L67.7241 46.293L72.4614 47.5244C71.796 49.6408 70.9278 51.6675 69.8746 53.5873L65.6264 51.21L64.3881 53.2923L68.6363 55.6739C67.4332 57.5381 66.0539 59.2783 64.5159 60.8774L61.0521 57.5167L59.2982 59.2184L62.762 62.5791C61.1138 64.0713 59.3203 65.4139 57.3989 66.5812L54.9443 62.4594L52.7982 63.6609L55.2528 67.7869C53.2741 68.8088 51.1808 69.6554 49.0039 70.301L47.7303 65.7004L45.3374 66.3203L46.6066 70.921C44.4384 71.4041 42.1953 71.6949 39.8994 71.7719V67.013H37.4183V71.7719C35.1224 71.6949 32.8749 71.4041 30.7112 70.921L31.9803 66.3203L29.5874 65.7004L28.3138 70.301C26.1325 69.6597 24.0436 68.8131 22.065 67.7869L24.5196 63.6609L22.3734 62.4594L19.9188 66.5812C18.0019 65.4139 16.2039 64.0713 14.5557 62.5791L18.0195 59.2184L16.27 57.5167L12.8062 60.8774C11.2682 59.2783 9.8845 57.5338 8.68585 55.6696L12.9296 53.2923L11.6913 51.21L7.44312 53.5873C6.38989 51.6675 5.51734 49.6366 4.85632 47.5244L9.59365 46.293L8.95467 43.967L4.21733 45.2027C3.71936 43.099 3.4197 40.9227 3.34478 38.6951H8.24076V36.2878H3.33156C3.41088 34.0602 3.71055 31.8839 4.20852 29.7802L8.94145 31.0074L9.58043 28.6856L4.85191 27.4585C5.51734 25.3421 6.38549 23.3154 7.44312 21.3956L11.6825 23.7729L12.9208 21.6906L8.68585 19.3176C9.88891 17.4577 11.2682 15.7132 12.8062 14.1141L16.2612 17.4662L18.0107 15.7688L14.5601 12.4166C16.2083 10.9244 18.0019 9.58184 19.9188 8.41885L22.3646 12.5278L24.5108 11.3263L22.065 7.2131C24.0436 6.19121 26.1325 5.3489 28.3138 4.70327L29.5786 9.28681L31.9715 8.66684L30.7067 4.08329C32.8749 3.60014 35.1136 3.30939 37.4139 3.23243V7.97417H39.895V3.22815C42.1909 3.30511 44.434 3.59586 46.6022 4.07901L45.3374 8.66256L47.7303 9.28254L48.9951 4.69899C51.1764 5.34462 53.2609 6.18693 55.2439 7.20883L52.7982 11.322L54.9443 12.5235L57.3901 8.41457C59.307 9.57756 61.1006 10.9201 62.7488 12.4123L59.2938 15.7645L61.0477 17.4619L64.5027 14.1098C66.0407 15.7089 67.42 17.4491 68.6231 19.3133L64.3881 21.6863L65.6264 23.7686L69.8658 21.3913C70.9234 23.3111 71.7916 25.3421 72.457 27.4542L67.7285 28.6814L68.3675 31.0031L73.1004 29.776C73.5984 31.8796 73.898 34.0517 73.9773 36.2836H69.0814V38.6908H73.9773C73.898 40.9227 73.6028 43.099 73.1048 45.1984"></path>
<path d="M38.6475 11.1465C23.6467 11.1465 11.4883 22.9431 11.4883 37.4976C11.4883 52.0521 23.6467 63.853 38.6475 63.853C53.6484 63.853 65.8112 52.0521 65.8112 37.4976C65.8112 22.9431 53.6484 11.1465 38.6475 11.1465ZM38.696 62.6729C24.3915 62.7028 12.7354 51.4407 12.7046 37.5575C12.6781 23.6786 24.2813 12.3565 38.5902 12.3266C52.9036 12.2966 64.5685 23.5717 64.5949 37.4506C64.6258 51.3338 53.005 62.643 38.696 62.6686"></path>
<path d="M31.8102 30.25V44.8259H29.0516L21.8905 35.368V44.8259H18.9467V32.2211L17.2148 30.3227V30.25H21.5776L28.8621 39.7292V30.25H31.8102Z"></path>
<path d="M44.7782 36.9718C44.6592 36.9247 44.4917 36.8691 44.4917 36.8691C44.4917 36.8691 44.6768 36.8178 44.7562 36.7623C45.7565 36.1637 46.2633 35.2529 46.2633 33.8505C46.2633 32.6362 45.968 31.9564 45.069 31.2252C44.3375 30.6309 42.9582 30.2461 41.0632 30.2461H33.9727V30.3829L35.9778 32.23V44.8262H41.0324C43.1653 44.8262 44.5358 44.4414 45.5626 43.7402C46.5806 43.039 47.0653 41.8803 47.0653 40.4479C47.0653 38.7376 46.2369 37.4806 44.7782 36.9675V36.9718ZM39.1375 32.5806H40.8826C42.61 32.6961 43.0111 33.4999 43.0111 34.3679C43.0111 35.5266 42.2795 36.1979 40.7812 36.1979H39.1419V32.5806H39.1375ZM41.0192 42.4746H39.1375V38.293H41.1205C42.8921 38.293 43.6633 39.0369 43.6633 40.4394C43.6633 41.8418 42.7643 42.4746 41.0148 42.4746"></path>
<path d="M59.85 31.8238C59.1582 31.0799 58.2372 30.2461 54.9012 30.2461H48.1367V30.3829L50.1506 32.23V44.8262H53.3059V39.3747L53.491 39.3961C53.6673 39.426 54.6368 39.5201 55.3992 39.5201C56.6683 39.5201 58.409 39.3191 59.4931 38.3571C60.489 37.4763 60.8724 36.51 60.8724 34.9066C60.8724 33.6196 60.5816 32.6148 59.8545 31.8195L59.85 31.8238ZM54.8175 37.224C54.3459 37.224 53.8083 37.2155 53.4249 37.1086L53.3103 37.0744V32.5935H54.8571C55.8751 32.5935 57.5805 32.8842 57.5805 34.8809C57.5805 36.3219 56.6771 37.2283 54.8131 37.2283"></path>
</symbol>
</defs>
<use href="#nbp" x="-1" y="-1" width="2" height="2"></use>
</svg>